<svg width="26" height="20" xmlns="http://www.w3.org/2000/svg">
  <g fill="#1673E6" fill-rule="nonzero">
    <path d="M4.446 2.158S7.664 0 12.874 0c5.21 0 8.428 2.158 8.428 2.158L19.19 13.596H6.548L4.446 2.158zM4.446 16.123s3.278 1.535 8.428 1.535c5.149 0 8.428-1.535 8.428-1.535v2.438S17.963 20 12.874 20c-5.09 0-8.428-1.439-8.428-1.439v-2.438zM4.257 14.544v-4.07c0-.658-.524-1.193-1.167-1.193H.043v2.158h1.965v3.114h2.249v-.01zM21.49 14.544v-4.07c0-.658.524-1.193 1.168-1.193h3.046v2.158H23.74v3.114H21.49v-.01z"/>
  </g>
</svg>
